# Blender v2.83.0 OBJ File: ''
# www.blender.org
mtllib plane.mtl
o Cube_Cube.001
v -10.000000 -0.060070 10.000000
v -10.000000 0.060070 10.000000
v -10.000000 -0.060070 -10.000000
v -10.000000 0.060070 -10.000000
v 10.000000 -0.060070 10.000000
v 10.000000 0.060070 10.000000
v 10.000000 -0.060070 -10.000000
v 10.000000 0.060070 -10.000000
vt -0.500000 -3.500000
vt 1.500000 -3.500000
vt 1.500000 -1.500000
vt -0.500000 -1.500000
vt 1.500000 0.500000
vt -0.500000 0.500000
vt 1.500000 2.500000
vt -0.500000 2.500000
vt 1.500000 4.500000
vt -0.500000 4.500000
vt -2.500000 0.500000
vt -2.500000 2.500000
vt 3.500000 0.500000
vt 3.500000 2.500000
vn -1.0000 0.0000 0.0000
vn 0.0000 0.0000 -1.0000
vn 1.0000 0.0000 0.0000
vn 0.0000 0.0000 1.0000
vn 0.0000 -1.0000 0.0000
vn 0.0000 1.0000 0.0000
usemtl Plane
s off
f 1/1/1 2/2/1 4/3/1 3/4/1
f 3/4/2 4/3/2 8/5/2 7/6/2
f 7/6/3 8/5/3 6/7/3 5/8/3
f 5/8/4 6/7/4 2/9/4 1/10/4
f 3/11/5 7/6/5 5/8/5 1/12/5
f 8/5/6 4/13/6 2/14/6 6/7/6
