# Blender v2.83.0 OBJ File: 'room.blend'
# www.blender.org
mtllib room.mtl
o Cube_Cube.001
v -12.442509 -0.070834 12.442509
v -12.442509 0.000000 12.442509
v -12.442509 -0.070834 -12.442509
v -12.442509 0.000000 -12.442509
v 12.442509 -0.070834 12.442509
v 12.442509 0.000000 12.442509
v 12.442509 -0.070834 -12.442509
v 12.442509 0.000000 -12.442509
vt 0.375000 0.000000
vt 0.625000 0.000000
vt 0.625000 0.250000
vt 0.375000 0.250000
vt 0.625000 0.500000
vt 0.375000 0.500000
vt 0.625000 0.750000
vt 0.375000 0.750000
vt 0.625000 1.000000
vt 0.375000 1.000000
vt 0.125000 0.500000
vt 0.125000 0.750000
vt 0.875000 0.500000
vt 0.875000 0.750000
vn -1.0000 0.0000 0.0000
vn 0.0000 0.0000 -1.0000
vn 1.0000 0.0000 0.0000
vn 0.0000 0.0000 1.0000
vn 0.0000 -1.0000 0.0000
vn 0.0000 1.0000 0.0000
usemtl floor
s off
f 1/1/1 2/2/1 4/3/1 3/4/1
f 3/4/2 4/3/2 8/5/2 7/6/2
f 7/6/3 8/5/3 6/7/3 5/8/3
f 5/8/4 6/7/4 2/9/4 1/10/4
f 3/11/5 7/6/5 5/8/5 1/12/5
f 8/5/6 4/13/6 2/14/6 6/7/6
o Cube.001_Cube.002
v -3.206231 0.000000 5.204578
v -3.206231 4.822320 5.204578
v -3.206231 0.000000 -5.204578
v -3.206231 4.822320 -5.204578
v 3.206231 0.000000 5.204578
v 3.206231 4.822320 5.204578
v 3.206231 0.000000 -5.204578
v 3.206231 4.822320 -5.204578
v -2.965586 0.180971 4.813947
v -2.965586 4.641350 4.813947
v -2.965586 0.180971 -4.813947
v -2.965586 4.641350 -4.813947
v 2.965586 0.180971 4.813947
v 2.965586 4.641350 4.813947
v 2.965586 0.180971 -4.813947
v 2.965586 4.641350 -4.813947
v 1.267707 0.981989 5.204578
v 1.267707 0.981989 4.813947
v 1.267707 3.517404 5.204578
v 1.267707 3.364506 5.204578
v 1.267707 3.364506 4.813947
v 1.267707 3.517404 4.813947
v -1.267707 3.517404 5.204578
v -1.267707 3.517404 4.813947
v -1.267708 1.457815 5.204578
v -1.267707 0.981989 5.204578
v -1.267707 0.981989 4.813947
v -1.267707 1.457815 4.813947
vt 0.625000 0.000000
vt 0.375000 0.250000
vt 0.375000 0.000000
vt 0.625000 0.250000
vt 0.375000 0.500000
vt 0.625000 0.500000
vt 0.375000 0.750000
vt 0.425909 0.924424
vt 0.375000 1.000000
vt 0.125000 0.750000
vt 0.125000 0.500000
vt 0.875000 0.500000
vt 0.625000 0.750000
vt 0.375000 0.250000
vt 0.625000 0.000000
vt 0.375000 0.000000
vt 0.375000 0.500000
vt 0.625000 0.250000
vt 0.375000 0.750000
vt 0.625000 0.500000
vt 0.375000 1.000000
vt 0.419896 0.821566
vt 0.125000 0.750000
vt 0.125000 0.500000
vt 0.625000 0.750000
vt 0.875000 0.500000
vt 0.609924 0.614177
vt 0.625000 0.575660
vt 0.609924 0.575660
vt 0.421918 0.174340
vt 0.625000 0.135822
vt 0.421918 0.135822
vt 0.557350 0.825576
vt 0.625000 1.000000
vt 0.562004 0.928434
vt 0.625000 1.000000
vt 0.125000 0.614178
vt 0.375000 0.575660
vt 0.125000 0.575660
vt 0.625000 0.614178
vt 0.875000 0.575660
vt 0.549424 0.825576
vt 0.425909 0.825577
vt 0.450576 0.924424
vt 0.875000 0.750000
vt 0.446566 0.928434
vt 0.419896 0.928434
vt 0.553434 0.821566
vt 0.875000 0.750000
vt 0.375000 0.614178
vt 0.375000 0.135822
vt 0.375000 0.174340
vt 0.625000 0.174340
vt 0.557350 0.924424
vt 0.562004 0.821566
vt 0.875000 0.614178
vn -1.0000 0.0000 0.0000
vn 0.0000 0.0000 -1.0000
vn 1.0000 0.0000 0.0000
vn 0.0000 0.0000 1.0000
vn 0.0000 -1.0000 0.0000
vn 0.0000 1.0000 0.0000
usemtl room
s off
f 10/15/7 11/16/7 9/17/7
f 12/18/8 15/19/8 11/16/8
f 16/20/9 13/21/9 15/19/9
f 13/21/10 34/22/10 9/23/10
f 15/19/11 9/24/11 11/25/11
f 12/26/12 14/27/12 16/20/12
f 19/28/9 18/29/9 17/30/9
f 23/31/10 20/32/10 19/28/10
f 21/33/7 24/34/7 23/31/7
f 21/33/8 17/35/8 26/36/8
f 17/37/12 23/31/12 19/38/12
f 22/39/11 20/40/11 24/34/11
f 28/41/7 30/42/7 29/43/7
f 36/44/9 31/45/9 33/46/9
f 27/47/10 14/27/10 10/48/10
f 22/39/8 32/49/8 18/50/8
f 34/51/12 26/52/12 35/53/12
f 27/54/11 32/55/11 30/42/11
f 10/15/7 12/18/7 11/16/7
f 12/18/8 16/20/8 15/19/8
f 16/20/9 14/27/9 13/21/9
f 13/21/10 14/27/10 28/56/10
f 13/21/10 28/56/10 25/57/10
f 34/22/10 33/58/10 9/23/10
f 13/21/10 25/57/10 34/22/10
f 15/19/11 13/21/11 9/24/11
f 12/26/12 10/59/12 14/27/12
f 19/28/9 20/32/9 18/29/9
f 23/31/10 24/34/10 20/32/10
f 21/33/7 22/39/7 24/34/7
f 17/35/8 36/60/8 35/61/8
f 26/36/8 29/62/8 21/33/8
f 29/62/8 22/39/8 21/33/8
f 17/35/8 35/61/8 26/36/8
f 17/37/12 21/33/12 23/31/12
f 22/39/11 18/63/11 20/40/11
f 29/43/7 26/52/7 25/64/7
f 28/41/7 27/54/7 30/42/7
f 29/43/7 25/64/7 28/41/7
f 33/46/9 34/65/9 35/66/9
f 36/44/9 32/67/9 31/45/9
f 33/46/9 35/66/9 36/44/9
f 10/48/10 9/23/10 33/58/10
f 10/48/10 33/58/10 31/68/10
f 27/47/10 28/56/10 14/27/10
f 10/48/10 31/68/10 27/47/10
f 22/39/8 29/62/8 30/69/8
f 32/49/8 36/60/8 18/50/8
f 36/60/8 17/35/8 18/50/8
f 22/39/8 30/69/8 32/49/8
f 34/51/12 25/64/12 26/52/12
f 27/54/11 31/70/11 32/55/11
