# Blender v2.83.0 OBJ File: ''
# www.blender.org
mtllib sphere.mtl
o Sphere
v 0.000000 0.707107 -0.707107
v 0.000000 0.382683 -0.923880
v 0.000000 -0.382684 -0.923880
v 0.000000 -0.923880 -0.382683
v 0.146447 0.923880 -0.353553
v 0.270598 0.707107 -0.653281
v 0.353553 0.382683 -0.853553
v 0.382683 -0.000000 -0.923880
v 0.353553 -0.382684 -0.853553
v 0.270598 -0.707107 -0.653281
v 0.146447 -0.923880 -0.353553
v 0.270598 0.923880 -0.270598
v 0.500000 0.707107 -0.500000
v 0.653281 0.382683 -0.653281
v 0.707107 -0.000000 -0.707107
v 0.653281 -0.382684 -0.653281
v 0.500000 -0.707107 -0.500000
v 0.270598 -0.923880 -0.270598
v 0.353553 0.923880 -0.146447
v 0.653281 0.707107 -0.270598
v 0.853553 0.382683 -0.353553
v 0.923879 -0.000000 -0.382683
v 0.853553 -0.382684 -0.353553
v 0.653281 -0.707107 -0.270598
v 0.353553 -0.923880 -0.146447
v 0.382683 0.923880 -0.000000
v 0.707107 0.707107 -0.000000
v 0.923879 0.382683 -0.000000
v 1.000000 -0.000000 -0.000000
v 0.923879 -0.382684 -0.000000
v 0.707107 -0.707107 -0.000000
v 0.382683 -0.923880 -0.000000
v 0.353553 0.923880 0.146446
v 0.653281 0.707107 0.270598
v 0.853553 0.382683 0.353553
v 0.923879 -0.000000 0.382683
v 0.853553 -0.382684 0.353553
v 0.653281 -0.707107 0.270598
v 0.353553 -0.923880 0.146446
v 0.270598 0.923880 0.270598
v 0.500000 0.707107 0.500000
v 0.653281 0.382683 0.653281
v 0.707106 -0.000000 0.707107
v 0.653281 -0.382684 0.653281
v 0.500000 -0.707107 0.500000
v 0.270598 -0.923880 0.270598
v 0.146446 0.923880 0.353553
v 0.270598 0.707107 0.653281
v 0.353553 0.382683 0.853553
v 0.382683 -0.000000 0.923879
v 0.353553 -0.382684 0.853553
v 0.270598 -0.707107 0.653281
v 0.146446 -0.923880 0.353553
v -0.000000 0.923880 0.382683
v -0.000000 0.707107 0.707106
v -0.000000 0.382683 0.923879
v -0.000000 -0.000000 1.000000
v -0.000000 -0.382684 0.923879
v -0.000000 -0.707107 0.707106
v -0.000000 -0.923880 0.382683
v -0.146447 0.923880 0.353553
v -0.270598 0.707107 0.653281
v -0.353554 0.382683 0.853553
v -0.382684 -0.000000 0.923879
v -0.353554 -0.382684 0.853553
v -0.270598 -0.707107 0.653281
v -0.146447 -0.923880 0.353553
v -0.270598 0.923880 0.270598
v -0.500000 0.707107 0.499999
v -0.653282 0.382683 0.653281
v -0.707107 -0.000000 0.707106
v -0.653282 -0.382684 0.653281
v -0.500000 -0.707107 0.499999
v -0.270598 -0.923880 0.270598
v -0.353553 0.923880 0.146446
v -0.653281 0.707107 0.270597
v -0.853553 0.382683 0.353553
v -0.923879 -0.000000 0.382683
v -0.853553 -0.382684 0.353553
v -0.653281 -0.707107 0.270597
v -0.353553 -0.923880 0.146446
v -0.382683 0.923880 -0.000000
v -0.707106 0.707107 -0.000000
v -0.923879 0.382683 -0.000001
v -1.000000 -0.000000 -0.000001
v -0.923879 -0.382684 -0.000001
v -0.707106 -0.707107 -0.000000
v -0.382683 -0.923880 -0.000000
v -0.353553 0.923880 -0.146447
v -0.653281 0.707107 -0.270598
v -0.853553 0.382683 -0.353554
v -0.923879 -0.000000 -0.382684
v -0.853553 -0.382684 -0.353554
v -0.653281 -0.707107 -0.270598
v -0.353553 -0.923880 -0.146447
v -0.270598 0.923880 -0.270598
v -0.499999 0.707107 -0.500000
v -0.653281 0.382683 -0.653282
v -0.707106 -0.000000 -0.707107
v -0.653281 -0.382684 -0.653282
v -0.499999 -0.707107 -0.500000
v -0.270598 -0.923880 -0.270598
v -0.146446 0.923880 -0.353553
v -0.270598 0.707107 -0.653281
v -0.353553 0.382683 -0.853553
v -0.382683 -0.000000 -0.923880
v -0.353553 -0.382684 -0.853553
v -0.270598 -0.707107 -0.653281
v -0.146446 -0.923880 -0.353553
v -0.000000 1.000000 -0.000000
v 0.000000 0.923880 -0.382683
v 0.000001 -0.000000 -1.000000
v 0.000000 -0.707107 -0.707106
v 0.000000 -1.000000 -0.000000
vt 0.750000 0.625000
vt 0.750000 0.750000
vt 0.687500 0.750000
vt 0.687500 0.625000
vt 0.750000 0.875000
vt 0.718750 1.000000
vt 0.687500 0.875000
vt 0.718750 0.000000
vt 0.750000 0.125000
vt 0.687500 0.125000
vt 0.750000 0.250000
vt 0.750000 0.375000
vt 0.687500 0.375000
vt 0.687500 0.250000
vt 0.750000 0.500000
vt 0.687500 0.500000
vt 0.625000 0.375000
vt 0.625000 0.250000
vt 0.625000 0.625000
vt 0.625000 0.500000
vt 0.625000 0.875000
vt 0.625000 0.750000
vt 0.625000 0.125000
vt 0.656250 1.000000
vt 0.656250 0.000000
vt 0.562500 0.250000
vt 0.562500 0.125000
vt 0.562500 0.500000
vt 0.562500 0.375000
vt 0.562500 0.750000
vt 0.562500 0.625000
vt 0.593750 1.000000
vt 0.562500 0.875000
vt 0.593750 0.000000
vt 0.500000 0.500000
vt 0.500000 0.375000
vt 0.500000 0.750000
vt 0.500000 0.625000
vt 0.531250 1.000000
vt 0.500000 0.875000
vt 0.531250 0.000000
vt 0.500000 0.125000
vt 0.500000 0.250000
vt 0.468750 0.000000
vt 0.437500 0.125000
vt 0.437500 0.375000
vt 0.437500 0.250000
vt 0.437500 0.625000
vt 0.437500 0.500000
vt 0.437500 0.875000
vt 0.437500 0.750000
vt 0.468750 1.000000
vt 0.375000 0.625000
vt 0.375000 0.500000
vt 0.375000 0.875000
vt 0.375000 0.750000
vt 0.375000 0.250000
vt 0.375000 0.125000
vt 0.375000 0.375000
vt 0.406250 1.000000
vt 0.406250 0.000000
vt 0.312500 0.250000
vt 0.312500 0.125000
vt 0.312500 0.500000
vt 0.312500 0.375000
vt 0.312500 0.750000
vt 0.312500 0.625000
vt 0.343750 1.000000
vt 0.312500 0.875000
vt 0.343750 0.000000
vt 0.250000 0.750000
vt 0.250000 0.625000
vt 0.281250 1.000000
vt 0.250000 0.875000
vt 0.281250 0.000000
vt 0.250000 0.125000
vt 0.250000 0.375000
vt 0.250000 0.250000
vt 0.250000 0.500000
vt 0.218750 0.000000
vt 0.187500 0.125000
vt 0.187500 0.375000
vt 0.187500 0.250000
vt 0.187500 0.625000
vt 0.187500 0.500000
vt 0.187500 0.875000
vt 0.187500 0.750000
vt 0.218750 1.000000
vt 0.125000 0.875000
vt 0.125000 0.750000
vt 0.125000 0.250000
vt 0.125000 0.125000
vt 0.125000 0.500000
vt 0.125000 0.375000
vt 0.125000 0.625000
vt 0.156250 1.000000
vt 0.156250 0.000000
vt 0.062500 0.250000
vt 0.062500 0.125000
vt 0.062500 0.500000
vt 0.062500 0.375000
vt 0.062500 0.750000
vt 0.062500 0.625000
vt 0.093750 1.000000
vt 0.062500 0.875000
vt 0.093750 0.000000
vt 0.031250 1.000000
vt 0.000000 0.875000
vt 0.031250 0.000000
vt 0.000000 0.125000
vt 0.000000 0.375000
vt 0.000000 0.250000
vt 0.000000 0.625000
vt 0.000000 0.500000
vt 0.000000 0.750000
vt 1.000000 0.250000
vt 1.000000 0.375000
vt 0.937500 0.375000
vt 0.937500 0.250000
vt 1.000000 0.500000
vt 1.000000 0.625000
vt 0.937500 0.625000
vt 0.937500 0.500000
vt 1.000000 0.750000
vt 1.000000 0.875000
vt 0.937500 0.875000
vt 0.937500 0.750000
vt 1.000000 0.125000
vt 0.937500 0.125000
vt 0.968750 1.000000
vt 0.968750 0.000000
vt 0.875000 0.250000
vt 0.875000 0.125000
vt 0.875000 0.500000
vt 0.875000 0.375000
vt 0.875000 0.750000
vt 0.875000 0.625000
vt 0.906250 1.000000
vt 0.875000 0.875000
vt 0.906250 0.000000
vt 0.812500 0.500000
vt 0.812500 0.375000
vt 0.812500 0.750000
vt 0.812500 0.625000
vt 0.843750 1.000000
vt 0.812500 0.875000
vt 0.843750 0.000000
vt 0.812500 0.125000
vt 0.812500 0.250000
vt 0.781250 0.000000
vt 0.781250 1.000000
vn 0.1632 0.5481 -0.8203
vn 0.0388 0.9800 -0.1949
vn 0.0388 -0.9800 -0.1949
vn 0.1632 -0.5481 -0.8203
vn 0.1915 0.1915 -0.9626
vn 0.1098 0.8264 -0.5522
vn 0.1098 -0.8264 -0.5522
vn 0.1915 -0.1915 -0.9626
vn 0.4647 -0.5481 -0.6954
vn 0.5453 0.1915 -0.8161
vn 0.3128 0.8264 -0.4681
vn 0.3128 -0.8264 -0.4681
vn 0.5453 -0.1915 -0.8161
vn 0.4647 0.5481 -0.6954
vn 0.1104 0.9800 -0.1653
vn 0.1104 -0.9800 -0.1653
vn 0.4681 -0.8264 -0.3128
vn 0.8161 -0.1915 -0.5453
vn 0.6954 0.5481 -0.4647
vn 0.1653 0.9800 -0.1104
vn 0.1653 -0.9800 -0.1104
vn 0.6954 -0.5481 -0.4647
vn 0.8161 0.1915 -0.5453
vn 0.4681 0.8264 -0.3128
vn 0.9626 -0.1915 -0.1915
vn 0.8203 0.5481 -0.1632
vn 0.1949 0.9800 -0.0388
vn 0.1949 -0.9800 -0.0388
vn 0.8203 -0.5481 -0.1632
vn 0.9626 0.1915 -0.1915
vn 0.5522 0.8264 -0.1098
vn 0.5522 -0.8264 -0.1098
vn 0.1949 -0.9800 0.0388
vn 0.8203 -0.5481 0.1632
vn 0.9626 0.1915 0.1915
vn 0.5522 0.8264 0.1098
vn 0.5522 -0.8264 0.1098
vn 0.9626 -0.1915 0.1915
vn 0.8203 0.5481 0.1632
vn 0.1949 0.9800 0.0388
vn 0.8161 0.1915 0.5453
vn 0.4681 0.8264 0.3128
vn 0.4681 -0.8264 0.3128
vn 0.8161 -0.1915 0.5453
vn 0.6954 0.5481 0.4647
vn 0.1653 0.9800 0.1104
vn 0.1653 -0.9800 0.1104
vn 0.6954 -0.5481 0.4647
vn 0.3128 -0.8264 0.4681
vn 0.5453 -0.1915 0.8161
vn 0.4647 0.5481 0.6954
vn 0.1104 0.9800 0.1653
vn 0.1104 -0.9800 0.1653
vn 0.4647 -0.5481 0.6954
vn 0.5453 0.1915 0.8161
vn 0.3128 0.8264 0.4681
vn 0.1632 0.5481 0.8203
vn 0.0388 0.9800 0.1949
vn 0.0388 -0.9800 0.1949
vn 0.1632 -0.5481 0.8203
vn 0.1915 0.1915 0.9626
vn 0.1098 0.8264 0.5522
vn 0.1098 -0.8264 0.5522
vn 0.1915 -0.1915 0.9626
vn -0.0388 -0.9800 0.1949
vn -0.1632 -0.5481 0.8203
vn -0.1915 0.1915 0.9626
vn -0.1098 0.8264 0.5522
vn -0.1098 -0.8264 0.5522
vn -0.1915 -0.1915 0.9626
vn -0.1632 0.5481 0.8203
vn -0.0388 0.9800 0.1949
vn -0.3128 0.8264 0.4681
vn -0.3128 -0.8264 0.4681
vn -0.5453 -0.1915 0.8161
vn -0.4647 0.5481 0.6954
vn -0.1104 0.9800 0.1653
vn -0.1104 -0.9800 0.1653
vn -0.4647 -0.5481 0.6954
vn -0.5453 0.1915 0.8161
vn -0.4681 -0.8264 0.3128
vn -0.8161 -0.1915 0.5453
vn -0.6954 0.5481 0.4647
vn -0.1653 0.9800 0.1104
vn -0.1653 -0.9800 0.1104
vn -0.6954 -0.5481 0.4647
vn -0.8161 0.1915 0.5453
vn -0.4681 0.8264 0.3128
vn -0.1949 0.9800 0.0388
vn -0.1949 -0.9800 0.0388
vn -0.8203 -0.5481 0.1632
vn -0.9626 0.1915 0.1915
vn -0.5522 0.8264 0.1098
vn -0.5522 -0.8264 0.1098
vn -0.9626 -0.1915 0.1915
vn -0.8203 0.5481 0.1632
vn -0.8203 -0.5481 -0.1632
vn -0.9626 0.1915 -0.1915
vn -0.5522 0.8264 -0.1098
vn -0.5522 -0.8264 -0.1098
vn -0.9626 -0.1915 -0.1915
vn -0.8203 0.5481 -0.1632
vn -0.1949 0.9800 -0.0388
vn -0.1949 -0.9800 -0.0388
vn -0.4681 -0.8264 -0.3128
vn -0.8161 -0.1915 -0.5453
vn -0.6954 0.5481 -0.4647
vn -0.1653 0.9800 -0.1104
vn -0.1653 -0.9800 -0.1104
vn -0.6954 -0.5481 -0.4647
vn -0.8161 0.1915 -0.5453
vn -0.4681 0.8264 -0.3128
vn -0.5453 -0.1915 -0.8161
vn -0.4647 0.5481 -0.6954
vn -0.1104 0.9800 -0.1653
vn -0.1104 -0.9800 -0.1653
vn -0.4647 -0.5481 -0.6954
vn -0.5453 0.1915 -0.8161
vn -0.3128 0.8264 -0.4681
vn -0.3128 -0.8264 -0.4681
vn -0.0388 -0.9800 -0.1949
vn -0.1632 -0.5481 -0.8203
vn -0.1915 0.1915 -0.9626
vn -0.1098 0.8264 -0.5522
vn -0.1098 -0.8264 -0.5522
vn -0.1915 -0.1915 -0.9626
vn -0.1632 0.5481 -0.8203
vn -0.0388 0.9800 -0.1949
usemtl None
s off
f 2/1/1 1/2/1 6/3/1 7/4/1
f 111/5/2 110/6/2 5/7/2
f 114/8/3 4/9/3 11/10/3
f 113/11/4 3/12/4 9/13/4 10/14/4
f 112/15/5 2/1/5 7/4/5 8/16/5
f 1/2/6 111/5/6 5/7/6 6/3/6
f 4/9/7 113/11/7 10/14/7 11/10/7
f 3/12/8 112/15/8 8/16/8 9/13/8
f 10/14/9 9/13/9 16/17/9 17/18/9
f 8/16/10 7/4/10 14/19/10 15/20/10
f 6/3/11 5/7/11 12/21/11 13/22/11
f 11/10/12 10/14/12 17/18/12 18/23/12
f 9/13/13 8/16/13 15/20/13 16/17/13
f 7/4/14 6/3/14 13/22/14 14/19/14
f 5/7/15 110/24/15 12/21/15
f 114/25/16 11/10/16 18/23/16
f 18/23/17 17/18/17 24/26/17 25/27/17
f 16/17/18 15/20/18 22/28/18 23/29/18
f 14/19/19 13/22/19 20/30/19 21/31/19
f 12/21/20 110/32/20 19/33/20
f 114/34/21 18/23/21 25/27/21
f 17/18/22 16/17/22 23/29/22 24/26/22
f 15/20/23 14/19/23 21/31/23 22/28/23
f 13/22/24 12/21/24 19/33/24 20/30/24
f 23/29/25 22/28/25 29/35/25 30/36/25
f 21/31/26 20/30/26 27/37/26 28/38/26
f 19/33/27 110/39/27 26/40/27
f 114/41/28 25/27/28 32/42/28
f 24/26/29 23/29/29 30/36/29 31/43/29
f 22/28/30 21/31/30 28/38/30 29/35/30
f 20/30/31 19/33/31 26/40/31 27/37/31
f 25/27/32 24/26/32 31/43/32 32/42/32
f 114/44/33 32/42/33 39/45/33
f 31/43/34 30/36/34 37/46/34 38/47/34
f 29/35/35 28/38/35 35/48/35 36/49/35
f 27/37/36 26/40/36 33/50/36 34/51/36
f 32/42/37 31/43/37 38/47/37 39/45/37
f 30/36/38 29/35/38 36/49/38 37/46/38
f 28/38/39 27/37/39 34/51/39 35/48/39
f 26/40/40 110/52/40 33/50/40
f 36/49/41 35/48/41 42/53/41 43/54/41
f 34/51/42 33/50/42 40/55/42 41/56/42
f 39/45/43 38/47/43 45/57/43 46/58/43
f 37/46/44 36/49/44 43/54/44 44/59/44
f 35/48/45 34/51/45 41/56/45 42/53/45
f 33/50/46 110/60/46 40/55/46
f 114/61/47 39/45/47 46/58/47
f 38/47/48 37/46/48 44/59/48 45/57/48
f 46/58/49 45/57/49 52/62/49 53/63/49
f 44/59/50 43/54/50 50/64/50 51/65/50
f 42/53/51 41/56/51 48/66/51 49/67/51
f 40/55/52 110/68/52 47/69/52
f 114/70/53 46/58/53 53/63/53
f 45/57/54 44/59/54 51/65/54 52/62/54
f 43/54/55 42/53/55 49/67/55 50/64/55
f 41/56/56 40/55/56 47/69/56 48/66/56
f 49/67/57 48/66/57 55/71/57 56/72/57
f 47/69/58 110/73/58 54/74/58
f 114/75/59 53/63/59 60/76/59
f 52/62/60 51/65/60 58/77/60 59/78/60
f 50/64/61 49/67/61 56/72/61 57/79/61
f 48/66/62 47/69/62 54/74/62 55/71/62
f 53/63/63 52/62/63 59/78/63 60/76/63
f 51/65/64 50/64/64 57/79/64 58/77/64
f 114/80/65 60/76/65 67/81/65
f 59/78/66 58/77/66 65/82/66 66/83/66
f 57/79/67 56/72/67 63/84/67 64/85/67
f 55/71/68 54/74/68 61/86/68 62/87/68
f 60/76/69 59/78/69 66/83/69 67/81/69
f 58/77/70 57/79/70 64/85/70 65/82/70
f 56/72/71 55/71/71 62/87/71 63/84/71
f 54/74/72 110/88/72 61/86/72
f 62/87/73 61/86/73 68/89/73 69/90/73
f 67/81/74 66/83/74 73/91/74 74/92/74
f 65/82/75 64/85/75 71/93/75 72/94/75
f 63/84/76 62/87/76 69/90/76 70/95/76
f 61/86/77 110/96/77 68/89/77
f 114/97/78 67/81/78 74/92/78
f 66/83/79 65/82/79 72/94/79 73/91/79
f 64/85/80 63/84/80 70/95/80 71/93/80
f 74/92/81 73/91/81 80/98/81 81/99/81
f 72/94/82 71/93/82 78/100/82 79/101/82
f 70/95/83 69/90/83 76/102/83 77/103/83
f 68/89/84 110/104/84 75/105/84
f 114/106/85 74/92/85 81/99/85
f 73/91/86 72/94/86 79/101/86 80/98/86
f 71/93/87 70/95/87 77/103/87 78/100/87
f 69/90/88 68/89/88 75/105/88 76/102/88
f 75/105/89 110/107/89 82/108/89
f 114/109/90 81/99/90 88/110/90
f 80/98/91 79/101/91 86/111/91 87/112/91
f 78/100/92 77/103/92 84/113/92 85/114/92
f 76/102/93 75/105/93 82/108/93 83/115/93
f 81/99/94 80/98/94 87/112/94 88/110/94
f 79/101/95 78/100/95 85/114/95 86/111/95
f 77/103/96 76/102/96 83/115/96 84/113/96
f 87/116/97 86/117/97 93/118/97 94/119/97
f 85/120/98 84/121/98 91/122/98 92/123/98
f 83/124/99 82/125/99 89/126/99 90/127/99
f 88/128/100 87/116/100 94/119/100 95/129/100
f 86/117/101 85/120/101 92/123/101 93/118/101
f 84/121/102 83/124/102 90/127/102 91/122/102
f 82/125/103 110/130/103 89/126/103
f 114/131/104 88/128/104 95/129/104
f 95/129/105 94/119/105 101/132/105 102/133/105
f 93/118/106 92/123/106 99/134/106 100/135/106
f 91/122/107 90/127/107 97/136/107 98/137/107
f 89/126/108 110/138/108 96/139/108
f 114/140/109 95/129/109 102/133/109
f 94/119/110 93/118/110 100/135/110 101/132/110
f 92/123/111 91/122/111 98/137/111 99/134/111
f 90/127/112 89/126/112 96/139/112 97/136/112
f 100/135/113 99/134/113 106/141/113 107/142/113
f 98/137/114 97/136/114 104/143/114 105/144/114
f 96/139/115 110/145/115 103/146/115
f 114/147/116 102/133/116 109/148/116
f 101/132/117 100/135/117 107/142/117 108/149/117
f 99/134/118 98/137/118 105/144/118 106/141/118
f 97/136/119 96/139/119 103/146/119 104/143/119
f 102/133/120 101/132/120 108/149/120 109/148/120
f 114/150/121 109/148/121 4/9/121
f 108/149/122 107/142/122 3/12/122 113/11/122
f 106/141/123 105/144/123 2/1/123 112/15/123
f 104/143/124 103/146/124 111/5/124 1/2/124
f 109/148/125 108/149/125 113/11/125 4/9/125
f 107/142/126 106/141/126 112/15/126 3/12/126
f 105/144/127 104/143/127 1/2/127 2/1/127
f 103/146/128 110/151/128 111/5/128
